<svg width="133" height="40" viewBox="0 0 133 40" fill="none" xmlns="http://www.w3.org/2000/svg">
<path d="M2.368 31V7.448H8.32V31H2.368ZM16.448 31L9.888 21.08H16.352L23.296 31H16.448ZM6.816 23.832V19.256H12.416C13.12 19.256 13.728 19.1173 14.24 18.84C14.752 18.5627 15.152 18.168 15.44 17.656C15.728 17.144 15.872 16.5467 15.872 15.864C15.872 15.16 15.728 14.552 15.44 14.04C15.152 13.528 14.752 13.1333 14.24 12.856C13.728 12.5787 13.12 12.44 12.416 12.44H6.816V7.448H12.064C14.0907 7.448 15.84 7.752 17.312 8.36C18.784 8.968 19.9147 9.864 20.704 11.048C21.4933 12.232 21.888 13.6987 21.888 15.448V15.96C21.888 17.7093 21.488 19.1653 20.688 20.328C19.888 21.4907 18.7573 22.3653 17.296 22.952C15.8347 23.5387 14.0907 23.832 12.064 23.832H6.816ZM35.648 31.64C33.5147 31.64 31.6587 31.272 30.08 30.536C28.5013 29.8 27.1893 28.8293 26.144 27.624C25.0987 26.4187 24.32 25.112 23.808 23.704C23.296 22.296 23.04 20.9307 23.04 19.608V18.904C23.04 17.432 23.3067 15.9867 23.84 14.568C24.3733 13.1493 25.1733 11.864 26.24 10.712C27.3067 9.56 28.624 8.64267 30.192 7.96C31.76 7.27733 33.5787 6.936 35.648 6.936C37.696 6.936 39.504 7.27733 41.072 7.96C42.64 8.64267 43.9573 9.56 45.024 10.712C46.0907 11.864 46.896 13.1493 47.44 14.568C47.984 15.9867 48.256 17.432 48.256 18.904V19.608C48.256 20.9307 47.9947 22.296 47.472 23.704C46.9493 25.112 46.1653 26.4187 45.12 27.624C44.0747 28.8293 42.7627 29.8 41.184 30.536C39.6053 31.272 37.76 31.64 35.648 31.64ZM35.648 26.072C36.672 26.072 37.5893 25.9013 38.4 25.56C39.2107 25.2187 39.904 24.7387 40.48 24.12C41.056 23.5013 41.4933 22.7813 41.792 21.96C42.0907 21.1387 42.24 20.248 42.24 19.288C42.24 18.264 42.0853 17.336 41.776 16.504C41.4667 15.672 41.024 14.9573 40.448 14.36C39.872 13.7627 39.1787 13.304 38.368 12.984C37.5573 12.664 36.6507 12.504 35.648 12.504C34.624 12.504 33.7067 12.664 32.896 12.984C32.0853 13.304 31.392 13.7627 30.816 14.36C30.24 14.9573 29.8027 15.672 29.504 16.504C29.2053 17.336 29.056 18.264 29.056 19.288C29.056 20.248 29.2053 21.1387 29.504 21.96C29.8027 22.7813 30.24 23.5013 30.816 24.12C31.392 24.7387 32.0853 25.2187 32.896 25.56C33.7067 25.9013 34.624 26.072 35.648 26.072ZM55.36 31.192V26.648H60.512C61.3867 26.648 62.0373 26.424 62.464 25.976C62.8907 25.528 63.104 24.8773 63.104 24.024C63.104 23.1707 62.8907 22.5253 62.464 22.088C62.0373 21.6507 61.3867 21.432 60.512 21.432H55.36V17.912H60.32C61.9627 17.912 63.4347 18.1093 64.736 18.504C66.0373 18.8987 67.0613 19.544 67.808 20.44C68.5547 21.336 68.928 22.5307 68.928 24.024V24.472C68.928 25.88 68.5973 27.0853 67.936 28.088C67.2747 29.0907 66.304 29.8587 65.024 30.392C63.744 30.9253 62.176 31.192 60.32 31.192H55.36ZM50.24 31.192V7.448H56V31.192H50.24ZM55.36 20.536V17.016H59.648C60.5227 17.016 61.1573 16.7973 61.552 16.36C61.9467 15.9227 62.144 15.3093 62.144 14.52C62.144 13.7093 61.9467 13.0853 61.552 12.648C61.1573 12.2107 60.5227 11.992 59.648 11.992H55.36V7.448H59.392C62.1227 7.448 64.2347 8.01867 65.728 9.16C67.2213 10.3013 67.968 11.928 67.968 14.04V14.52C67.968 15.992 67.5893 17.1707 66.832 18.056C66.0747 18.9413 65.0507 19.576 63.76 19.96C62.4693 20.344 61.0133 20.536 59.392 20.536H55.36ZM70.912 31V7.64H76.864V31H70.912ZM76.224 31V25.816H85.696V31H76.224ZM98.24 31.64C96.1067 31.64 94.2507 31.272 92.672 30.536C91.0933 29.8 89.7813 28.8293 88.736 27.624C87.6907 26.4187 86.912 25.112 86.4 23.704C85.888 22.296 85.632 20.9307 85.632 19.608V18.904C85.632 17.432 85.8987 15.9867 86.432 14.568C86.9653 13.1493 87.7653 11.864 88.832 10.712C89.8987 9.56 91.216 8.64267 92.784 7.96C94.352 7.27733 96.1707 6.936 98.24 6.936C100.288 6.936 102.096 7.27733 103.664 7.96C105.232 8.64267 106.549 9.56 107.616 10.712C108.683 11.864 109.488 13.1493 110.032 14.568C110.576 15.9867 110.848 17.432 110.848 18.904V19.608C110.848 20.9307 110.587 22.296 110.064 23.704C109.541 25.112 108.757 26.4187 107.712 27.624C106.667 28.8293 105.355 29.8 103.776 30.536C102.197 31.272 100.352 31.64 98.24 31.64ZM98.24 26.072C99.264 26.072 100.181 25.9013 100.992 25.56C101.803 25.2187 102.496 24.7387 103.072 24.12C103.648 23.5013 104.085 22.7813 104.384 21.96C104.683 21.1387 104.832 20.248 104.832 19.288C104.832 18.264 104.677 17.336 104.368 16.504C104.059 15.672 103.616 14.9573 103.04 14.36C102.464 13.7627 101.771 13.304 100.96 12.984C100.149 12.664 99.2427 12.504 98.24 12.504C97.216 12.504 96.2987 12.664 95.488 12.984C94.6773 13.304 93.984 13.7627 93.408 14.36C92.832 14.9573 92.3947 15.672 92.096 16.504C91.7973 17.336 91.648 18.264 91.648 19.288C91.648 20.248 91.7973 21.1387 92.096 21.96C92.3947 22.7813 92.832 23.5013 93.408 24.12C93.984 24.7387 94.6773 25.2187 95.488 25.56C96.2987 25.9013 97.216 26.072 98.24 26.072ZM109.632 31L117.376 18.584L117.44 19.096L110.272 7.64H116.8L120.8 14.392H121.632L125.504 7.64H131.84L124.704 19.16L124.608 18.648L132.608 31H126.08L121.312 23.288H120.48L115.968 31H109.632Z" fill="#E2231A"/>
</svg>
