<svg width="82" height="16" viewBox="0 0 82 16" fill="none" xmlns="http://www.w3.org/2000/svg">
<path d="M1.95503e-05 15.04V0.320001H3.72002V15.04H1.95503e-05ZM8.80002 15.04L4.70002 8.84H8.74002L13.08 15.04H8.80002ZM2.78002 10.56V7.7H6.28002C6.72002 7.7 7.10002 7.61333 7.42002 7.44C7.74002 7.26667 7.99002 7.02 8.17002 6.7C8.35002 6.38 8.44002 6.00667 8.44002 5.58C8.44002 5.14 8.35002 4.76 8.17002 4.44C7.99002 4.12 7.74002 3.87333 7.42002 3.7C7.10002 3.52667 6.72002 3.44 6.28002 3.44H2.78002V0.320001H6.06002C7.32669 0.320001 8.42002 0.510001 9.34002 0.890001C10.26 1.27 10.9667 1.83 11.46 2.57C11.9534 3.31 12.2 4.22667 12.2 5.32V5.64C12.2 6.73333 11.95 7.64333 11.45 8.37C10.95 9.09667 10.2434 9.64333 9.33002 10.01C8.41669 10.3767 7.32669 10.56 6.06002 10.56H2.78002ZM20.8 15.44C19.4667 15.44 18.3067 15.21 17.32 14.75C16.3334 14.29 15.5134 13.6833 14.86 12.93C14.2067 12.1767 13.72 11.36 13.4 10.48C13.08 9.6 12.92 8.74667 12.92 7.92V7.48C12.92 6.56 13.0867 5.65667 13.42 4.77C13.7534 3.88333 14.2534 3.08 14.92 2.36C15.5867 1.64 16.41 1.06667 17.39 0.64C18.37 0.213334 19.5067 1.43051e-06 20.8 1.43051e-06C22.08 1.43051e-06 23.21 0.213334 24.19 0.64C25.17 1.06667 25.9934 1.64 26.66 2.36C27.3267 3.08 27.83 3.88333 28.17 4.77C28.51 5.65667 28.68 6.56 28.68 7.48V7.92C28.68 8.74667 28.5167 9.6 28.19 10.48C27.8634 11.36 27.3734 12.1767 26.72 12.93C26.0667 13.6833 25.2467 14.29 24.26 14.75C23.2734 15.21 22.12 15.44 20.8 15.44ZM20.8 11.96C21.44 11.96 22.0134 11.8533 22.52 11.64C23.0267 11.4267 23.46 11.1267 23.82 10.74C24.18 10.3533 24.4534 9.90333 24.64 9.39C24.8267 8.87667 24.92 8.32 24.92 7.72C24.92 7.08 24.8234 6.5 24.63 5.98C24.4367 5.46 24.16 5.01333 23.8 4.64C23.44 4.26667 23.0067 3.98 22.5 3.78C21.9934 3.58 21.4267 3.48 20.8 3.48C20.16 3.48 19.5867 3.58 19.08 3.78C18.5734 3.98 18.14 4.26667 17.78 4.64C17.42 5.01333 17.1467 5.46 16.96 5.98C16.7734 6.5 16.68 7.08 16.68 7.72C16.68 8.32 16.7734 8.87667 16.96 9.39C17.1467 9.90333 17.42 10.3533 17.78 10.74C18.14 11.1267 18.5734 11.4267 19.08 11.64C19.5867 11.8533 20.16 11.96 20.8 11.96ZM33.12 15.16V12.32H36.34C36.8867 12.32 37.2934 12.18 37.56 11.9C37.8267 11.62 37.96 11.2133 37.96 10.68C37.96 10.1467 37.8267 9.74333 37.56 9.47C37.2934 9.19667 36.8867 9.06 36.34 9.06H33.12V6.86H36.22C37.2467 6.86 38.1667 6.98333 38.98 7.23C39.7934 7.47667 40.4334 7.88 40.9 8.44C41.3667 9 41.6 9.74667 41.6 10.68V10.96C41.6 11.84 41.3934 12.5933 40.98 13.22C40.5667 13.8467 39.96 14.3267 39.16 14.66C38.36 14.9933 37.38 15.16 36.22 15.16H33.12ZM29.92 15.16V0.320001H33.52V15.16H29.92ZM33.12 8.5V6.3H35.8C36.3467 6.3 36.7434 6.16333 36.99 5.89C37.2367 5.61667 37.36 5.23333 37.36 4.74C37.36 4.23333 37.2367 3.84333 36.99 3.57C36.7434 3.29667 36.3467 3.16 35.8 3.16H33.12V0.320001H35.64C37.3467 0.320001 38.6667 0.676668 39.6 1.39C40.5334 2.10333 41 3.12 41 4.44V4.74C41 5.66 40.7634 6.39667 40.29 6.95C39.8167 7.50333 39.1767 7.9 38.37 8.14C37.5634 8.38 36.6534 8.5 35.64 8.5H33.12ZM42.84 15.04V0.440001H46.56V15.04H42.84ZM46.16 15.04V11.8H52.08V15.04H46.16ZM59.92 15.44C58.5867 15.44 57.4267 15.21 56.44 14.75C55.4534 14.29 54.6334 13.6833 53.98 12.93C53.3267 12.1767 52.84 11.36 52.52 10.48C52.2 9.6 52.04 8.74667 52.04 7.92V7.48C52.04 6.56 52.2067 5.65667 52.54 4.77C52.8734 3.88333 53.3734 3.08 54.04 2.36C54.7067 1.64 55.53 1.06667 56.51 0.64C57.49 0.213334 58.6267 1.43051e-06 59.92 1.43051e-06C61.2 1.43051e-06 62.33 0.213334 63.31 0.64C64.29 1.06667 65.1134 1.64 65.78 2.36C66.4467 3.08 66.95 3.88333 67.29 4.77C67.63 5.65667 67.8 6.56 67.8 7.48V7.92C67.8 8.74667 67.6367 9.6 67.31 10.48C66.9834 11.36 66.4934 12.1767 65.84 12.93C65.1867 13.6833 64.3667 14.29 63.38 14.75C62.3934 15.21 61.24 15.44 59.92 15.44ZM59.92 11.96C60.56 11.96 61.1334 11.8533 61.64 11.64C62.1467 11.4267 62.58 11.1267 62.94 10.74C63.3 10.3533 63.5734 9.90333 63.76 9.39C63.9467 8.87667 64.04 8.32 64.04 7.72C64.04 7.08 63.9434 6.5 63.75 5.98C63.5567 5.46 63.28 5.01333 62.92 4.64C62.56 4.26667 62.1267 3.98 61.62 3.78C61.1134 3.58 60.5467 3.48 59.92 3.48C59.28 3.48 58.7067 3.58 58.2 3.78C57.6934 3.98 57.26 4.26667 56.9 4.64C56.54 5.01333 56.2667 5.46 56.08 5.98C55.8934 6.5 55.8 7.08 55.8 7.72C55.8 8.32 55.8934 8.87667 56.08 9.39C56.2667 9.90333 56.54 10.3533 56.9 10.74C57.26 11.1267 57.6934 11.4267 58.2 11.64C58.7067 11.8533 59.28 11.96 59.92 11.96ZM67.04 15.04L71.88 7.28L71.92 7.6L67.44 0.440001H71.52L74.02 4.66H74.54L76.96 0.440001H80.92L76.46 7.64L76.4 7.32L81.4 15.04H77.32L74.34 10.22H73.82L71 15.04H67.04Z" fill="#E2231A"/>
</svg>
